<?xml version="1.0" standalone="no"?>
<svg xmlns:xlink="http://www.w3.org/1999/xlink" id="wave" style="transform:rotate(0deg); transition: 0.3s" viewBox="0 0 1440 260" version="1.1" xmlns="http://www.w3.org/2000/svg"><defs><linearGradient id="sw-gradient-0" x1="0" x2="0" y1="1" y2="0"><stop stop-color="rgba(20, 93, 160, 1)" offset="0%"/><stop stop-color="rgba(46, 139, 192, 1)" offset="100%"/></linearGradient></defs><path style="transform:translate(0, 0px); opacity:1" fill="url(#sw-gradient-0)" d="M0,130L40,108.3C80,87,160,43,240,26C320,9,400,17,480,26C560,35,640,43,720,69.3C800,95,880,139,960,134.3C1040,130,1120,78,1200,73.7C1280,69,1360,113,1440,143C1520,173,1600,191,1680,195C1760,199,1840,191,1920,177.7C2000,165,2080,147,2160,134.3C2240,121,2320,113,2400,130C2480,147,2560,191,2640,212.3C2720,234,2800,234,2880,225.3C2960,217,3040,199,3120,182C3200,165,3280,147,3360,117C3440,87,3520,43,3600,43.3C3680,43,3760,87,3840,86.7C3920,87,4000,43,4080,56.3C4160,69,4240,139,4320,169C4400,199,4480,191,4560,173.3C4640,156,4720,130,4800,125.7C4880,121,4960,139,5040,125.7C5120,113,5200,69,5280,60.7C5360,52,5440,78,5520,86.7C5600,95,5680,87,5720,82.3L5760,78L5760,260L5720,260C5680,260,5600,260,5520,260C5440,260,5360,260,5280,260C5200,260,5120,260,5040,260C4960,260,4880,260,4800,260C4720,260,4640,260,4560,260C4480,260,4400,260,4320,260C4240,260,4160,260,4080,260C4000,260,3920,260,3840,260C3760,260,3680,260,3600,260C3520,260,3440,260,3360,260C3280,260,3200,260,3120,260C3040,260,2960,260,2880,260C2800,260,2720,260,2640,260C2560,260,2480,260,2400,260C2320,260,2240,260,2160,260C2080,260,2000,260,1920,260C1840,260,1760,260,1680,260C1600,260,1520,260,1440,260C1360,260,1280,260,1200,260C1120,260,1040,260,960,260C880,260,800,260,720,260C640,260,560,260,480,260C400,260,320,260,240,260C160,260,80,260,40,260L0,260Z"/></svg>