<?xml version="1.0" standalone="no"?>
<svg width="100%" height="100%" id="svg" viewBox="0 0 1440 400" xmlns="http://www.w3.org/2000/svg" class="transition duration-300 ease-in-out delay-150"><defs><linearGradient id="gradient" x1="0%" y1="49%" x2="100%" y2="51%"><stop offset="5%" stop-color="#145da088"></stop><stop offset="95%" stop-color="#2e8bc088"></stop></linearGradient></defs><path d="M 0,400 C 0,400 0,133 0,133 C 86.31282051282051,156.55897435897435 172.62564102564102,180.11794871794874 248,162 C 323.374358974359,143.88205128205126 387.81025641025644,84.0871794871795 479,85 C 570.1897435897436,85.9128205128205 688.1333333333333,147.53333333333333 764,173 C 839.8666666666667,198.46666666666667 873.6564102564101,187.77948717948718 945,169 C 1016.3435897435899,150.22051282051282 1125.2410256410258,123.34871794871795 1214,116 C 1302.7589743589742,108.65128205128205 1371.3794871794871,120.82564102564103 1440,133 C 1440,133 1440,400 1440,400 Z" stroke="none" stroke-width="0" fill="url(#gradient)" class="transition-all duration-300 ease-in-out delay-150 path-0"></path><defs><linearGradient id="gradient" x1="0%" y1="49%" x2="100%" y2="51%"><stop offset="5%" stop-color="#145da0ff"></stop><stop offset="95%" stop-color="#2e8bc0ff"></stop></linearGradient></defs><path d="M 0,400 C 0,400 0,266 0,266 C 65.4769230769231,247.5051282051282 130.9538461538462,229.0102564102564 221,241 C 311.0461538461538,252.9897435897436 425.6615384615384,295.46410256410263 516,289 C 606.3384615384616,282.53589743589737 672.4,227.13333333333333 738,227 C 803.6,226.86666666666667 868.7384615384616,282.00256410256407 938,286 C 1007.2615384615384,289.99743589743593 1080.6461538461538,242.85641025641027 1165,231 C 1249.3538461538462,219.14358974358973 1344.6769230769232,242.57179487179485 1440,266 C 1440,266 1440,400 1440,400 Z" stroke="none" stroke-width="0" fill="url(#gradient)" class="transition-all duration-300 ease-in-out delay-150 path-1"></path></svg>
